<?xml version="1.0" encoding="utf-8"?>
<svg viewBox="0 0 480 480" xmlns="http://www.w3.org/2000/svg">
  <path style="fill: rgb(2, 36, 62); transform-origin: 153.622px 269.266px;" d="M 153.623 473.818 C 151.546 473.818 150.161 472.344 150.161 470.132 L 150.161 68.401 C 150.161 66.189 151.546 64.715 153.623 64.715 C 155.699 64.715 157.084 66.189 157.084 68.401 L 157.084 470.132 C 157.084 472.344 155.699 473.818 153.623 473.818 Z" transform="matrix(0.984808027744, -0.173648029566, 0.173648029566, 0.984808027744, 0.000006895349, -0.000003721023)"/>
  <circle style="fill: rgb(237, 124, 138); transform-origin: 240px 20px;" cx="240" cy="20" r="20" transform="matrix(0.85212212801, -0.150251999497, 0.159999996424, 0.907404124737, -124.457840107874, 33.304043554702)"/>
  <path style="fill: rgb(221, 88, 111); transform-origin: 124.191px 52.528px;" d="M 115.538 34.1 C 125.229 34.1 132.844 42.208 132.844 52.528 C 132.844 62.847 125.229 70.956 115.538 70.956" transform="matrix(0.984808027744, -0.173648029566, 0.173648029566, 0.984808027744, 6.98667e-7, 3.0296e-8)"/>
  <g style="transform-origin: 231.413px 9.41797px;" transform="matrix(0.85212212801, -0.150251999497, 0.159999996424, 0.907404124737, -124.881173879151, 35.574079539715)">
    <ellipse transform="matrix(-0.5852 -0.8109 0.8109 -0.5852 361.1086 200.8129)" style="fill:#F4A6B4;" cx="231.916" cy="8.045" rx="3.2" ry="7.2"/>
    <path style="fill:#F4A6B4;" d="M226.4,16c0,0.8-0.8,1.6-1.6,1.6s-1.6-0.8-1.6-1.6c0-0.8,0.8-1.6,1.6-1.6S226.4,15.2,226.4,16z"/>
  </g>
  <path style="fill: rgb(2, 36, 62); transform-origin: 116.118px 158.218px;" d="M 133.077 197.062 C 131.693 197.062 130.308 196.325 130.308 194.851 L 95.697 124.824 C 95.005 123.35 95.697 121.138 97.082 119.664 C 98.466 118.927 100.543 119.664 101.927 121.138 L 136.538 191.165 C 137.23 192.639 136.538 194.851 135.154 196.325 C 134.461 197.062 133.769 197.062 133.077 197.062 Z" transform="matrix(0.984808027744, -0.173648029566, 0.173648029566, 0.984808027744, 0.000002393412, -6.15837e-7)"/>
  <circle style="fill: rgb(237, 124, 138); transform-origin: 193.6px 83.2px;" cx="193.6" cy="83.2" r="13.6" transform="matrix(0.85212212801, -0.150251999497, 0.159999996424, 0.907404124737, -107.484346001027, 34.423691285826)"/>
  <path style="fill: rgb(221, 88, 111); transform-origin: 88.9901px 116.456px;" d="M 80.419 106.05 C 85.957 103.101 92.879 105.312 96.34 111.209 C 99.109 117.106 97.032 124.478 91.494 128.163" transform="matrix(0.984808027744, -0.173648029566, 0.173648029566, 0.984808027744, 0.000001849098, -0.000002191574)"/>
  <g style="transform-origin: 185.01px 79.2332px;" transform="matrix(0.85212212801, -0.150251999497, 0.159999996424, 0.907404124737, -106.848764328693, 36.081619369984)">
    <ellipse transform="matrix(-0.8958 -0.4445 0.4445 -0.8958 315.9684 230.5537)" style="fill:#F4A6B4;" cx="185.012" cy="78.235" rx="2.4" ry="4.8"/>
    <circle style="fill:#F4A6B4;" cx="183.2" cy="84.8" r="0.8"/>
  </g>
  <path style="fill: rgb(2, 36, 62); transform-origin: 151.566px 151.968px;" d="M 133.915 190.812 C 133.222 190.812 132.53 190.812 132.53 190.075 C 131.146 189.338 130.454 187.127 131.146 184.915 L 165.756 114.889 C 166.449 113.414 168.525 112.677 170.602 113.414 C 171.986 114.152 172.679 116.363 171.986 118.574 L 137.376 188.601 C 135.991 190.075 134.607 190.812 133.915 190.812 Z" transform="matrix(0.984808027744, -0.173648029566, 0.173648029566, 0.984808027744, 0.000001778856, -0.000001278592)"/>
  <circle style="fill: rgb(237, 124, 138); transform-origin: 286.4px 83.2px;" cx="286.4" cy="83.2" r="13.6" transform="matrix(0.85212212801, -0.150251999497, 0.159999996424, 0.907404124737, -121.207393201341, 20.48030985926)"/>
  <path style="fill: rgb(221, 88, 111); transform-origin: 162.093px 103.566px;" d="M 170.664 93.16 C 165.126 90.211 158.204 92.423 154.743 98.32 C 151.974 104.217 154.051 111.588 159.588 115.273" transform="matrix(0.984808027744, -0.173648029566, 0.173648029566, 0.984808027744, 0.00000264914, -0.000001337921)"/>
  <g style="transform-origin: 295.503px 79.1547px;" transform="matrix(0.85212212801, -0.150251999497, 0.159999996424, 0.907404124737, -123.200800922479, 19.487086797531)">
    <ellipse transform="matrix(-0.8958 0.4445 -0.4445 -0.8958 594.9235 16.6623)" style="fill:#F4A6B4;" cx="295.508" cy="78.075" rx="2.4" ry="4.8"/>
    <circle style="fill:#F4A6B4;" cx="296.8" cy="84.8" r="0.8"/>
  </g>
  <path style="fill: rgb(2, 36, 62); transform-origin: 127.382px 222.1px;" d="M 144.341 260.944 C 142.957 260.944 141.572 260.207 141.572 258.732 L 106.962 188.706 C 106.269 187.232 106.962 185.02 108.346 183.546 C 109.73 182.809 111.807 183.546 113.192 185.02 L 147.802 255.047 C 148.494 256.521 147.802 258.732 146.418 260.207 C 145.726 260.944 145.033 260.944 144.341 260.944 Z" transform="matrix(0.984808027744, -0.173648029566, 0.173648029566, 0.984808027744, 0.000006651234, 1.06812e-7)"/>
  <circle style="fill: rgb(237, 124, 138); transform-origin: 193.6px 153.6px;" cx="193.6" cy="153.6" r="13.6" transform="matrix(0.85212212801, -0.150251999497, 0.159999996424, 0.907404124737, -96.220377746937, 27.904942232456)"/>
  <path style="fill: rgb(221, 88, 111); transform-origin: 100.254px 180.338px;" d="M 91.683 169.931 C 97.221 166.983 104.143 169.194 107.604 175.091 C 110.373 180.988 108.296 188.359 102.759 192.045" transform="matrix(0.984808027744, -0.173648029566, 0.173648029566, 0.984808027744, 0.000006862035, -0.00000132671)"/>
  <g style="transform-origin: 184.978px 149.639px;" transform="matrix(0.85212212801, -0.150251999497, 0.159999996424, 0.907404124737, -95.579033932053, 29.567165604158)">
    <ellipse transform="matrix(-0.8958 -0.4445 0.4445 -0.8958 284.6104 364.027)" style="fill:#F4A6B4;" cx="184.981" cy="148.648" rx="2.4" ry="4.8"/>
    <circle style="fill:#F4A6B4;" cx="183.2" cy="155.2" r="0.8"/>
  </g>
  <path style="fill: rgb(2, 36, 62); transform-origin: 162.83px 215.849px;" d="M 145.179 254.693 C 144.486 254.693 143.794 254.693 143.794 253.956 C 142.41 253.219 141.718 251.007 142.41 248.796 L 177.021 178.769 C 177.713 177.295 179.789 176.558 181.866 177.295 C 183.25 178.032 183.943 180.244 183.25 182.455 L 148.64 252.482 C 147.255 253.956 145.871 254.693 145.179 254.693 Z" transform="matrix(0.984808027744, -0.173648029566, 0.173648029566, 0.984808027744, 0.00000422762, -0.000003505427)"/>
  <circle style="fill: rgb(237, 124, 138); transform-origin: 286.4px 153.6px;" cx="286.4" cy="153.6" r="13.6" transform="matrix(0.85212212801, -0.150251999497, 0.159999996424, 0.907404124737, -109.943417317857, 13.961568435285)"/>
  <path style="fill: rgb(221, 88, 111); transform-origin: 173.357px 167.448px;" d="M 181.928 157.041 C 176.39 154.093 169.468 156.304 166.007 162.201 C 163.238 168.098 165.315 175.469 170.853 179.155" transform="matrix(0.984808027744, -0.173648029566, 0.173648029566, 0.984808027744, 0.000004839867, -0.000003874001)"/>
  <g style="transform-origin: 295.438px 149.568px;" transform="matrix(0.85212212801, -0.150251999497, 0.159999996424, 0.907404124737, -111.925037933714, 12.976902958928)">
    <ellipse transform="matrix(-0.8958 0.4445 -0.4445 -0.8958 626.1071 150.2054)" style="fill:#F4A6B4;" cx="295.445" cy="148.502" rx="2.4" ry="4.8"/>
    <circle style="fill:#F4A6B4;" cx="296.8" cy="155.2" r="0.8"/>
  </g>
  <path style="fill: rgb(2, 36, 62); transform-origin: 138.646px 285.981px;" d="M 155.605 324.825 C 154.221 324.825 152.836 324.087 152.836 322.613 L 118.226 252.587 C 117.533 251.112 118.226 248.901 119.61 247.427 C 120.995 246.69 123.071 247.427 124.456 248.901 L 159.066 318.928 C 159.759 320.402 159.066 322.613 157.682 324.087 C 156.99 324.825 156.297 324.825 155.605 324.825 Z" transform="matrix(0.984808027744, -0.173648029566, 0.173648029566, 0.984808027744, 0.000005854643, -0.00000297562)"/>
  <circle style="fill: rgb(237, 124, 138); transform-origin: 193.6px 224px;" cx="193.6" cy="224" r="13.6" transform="matrix(0.85212212801, -0.150251999497, 0.159999996424, 0.907404124737, -84.956401863453, 21.386208437876)"/>
  <path style="fill: rgb(221, 88, 111); transform-origin: 111.518px 244.219px;" d="M 102.947 233.812 C 108.485 230.864 115.407 233.075 118.868 238.972 C 121.637 244.869 119.56 252.24 114.023 255.926" transform="matrix(0.984808027744, -0.173648029566, 0.173648029566, 0.984808027744, 0.000003704658, -0.000002228713)"/>
  <g style="transform-origin: 184.948px 220.044px;" transform="matrix(0.85212212801, -0.150251999497, 0.159999996424, 0.907404124737, -84.310021732393, 23.052435315008)">
    <ellipse transform="matrix(-0.8958 -0.4445 0.4445 -0.8958 253.2525 497.5003)" style="fill:#F4A6B4;" cx="184.949" cy="219.061" rx="2.4" ry="4.8"/>
    <circle style="fill:#F4A6B4;" cx="183.2" cy="225.6" r="0.8"/>
  </g>
  <path style="fill: rgb(2, 36, 62); transform-origin: 174.094px 279.731px;" d="M 156.443 318.575 C 155.751 318.575 155.058 318.575 155.058 317.838 C 153.674 317.101 152.982 314.889 153.674 312.678 L 188.285 242.651 C 188.977 241.177 191.054 240.44 193.13 241.177 C 194.515 241.914 195.207 244.125 194.515 246.337 L 159.904 316.363 C 158.519 317.838 157.135 318.575 156.443 318.575 Z" transform="matrix(0.984808027744, -0.173648029566, 0.173648029566, 0.984808027744, 0.000002136992, -0.000001226137)"/>
  <circle style="fill: rgb(237, 124, 138); transform-origin: 286.4px 224px;" cx="286.4" cy="224" r="13.6" transform="matrix(0.85212212801, -0.150251999497, 0.159999996424, 0.907404124737, -98.679449063766, 7.442834640703)"/>
  <path style="fill: rgb(221, 88, 111); transform-origin: 184.62px 231.329px;" d="M 193.191 220.922 C 187.654 217.974 180.731 220.185 177.27 226.082 C 174.501 231.979 176.578 239.35 182.116 243.036" transform="matrix(0.984808027744, -0.173648029566, 0.173648029566, 0.984808027744, 0.00000351468, -0.000002884739)"/>
  <g style="transform-origin: 295.406px 219.981px;" transform="matrix(0.85212212801, -0.150251999497, 0.159999996424, 0.907404124737, -100.654232708018, 6.461767751516)">
    <ellipse transform="matrix(-0.8958 0.4445 -0.4445 -0.8958 657.3513 283.7341)" style="fill:#F4A6B4;" cx="295.413" cy="218.929" rx="2.4" ry="4.8"/>
    <circle style="fill:#F4A6B4;" cx="296.8" cy="225.6" r="0.8"/>
  </g>
  <path style="fill: rgb(2, 36, 62); transform-origin: 149.91px 349.862px;" d="M 166.869 388.706 C 165.485 388.706 164.101 387.969 164.101 386.495 L 129.49 316.468 C 128.798 314.994 129.49 312.783 130.874 311.308 C 132.259 310.571 134.335 311.308 135.72 312.783 L 170.33 382.809 C 171.023 384.284 170.33 386.495 168.946 387.969 C 168.254 388.706 167.562 388.706 166.869 388.706 Z" transform="matrix(0.984808027744, -0.173648029566, 0.173648029566, 0.984808027744, 0.00000770771, -0.000002475165)"/>
  <circle style="fill: rgb(237, 124, 138); transform-origin: 193.6px 294.4px;" cx="193.6" cy="294.4" r="13.6" transform="matrix(0.85212212801, -0.150251999497, 0.159999996424, 0.907404124737, -73.692428421376, 14.867476056194)"/>
  <path style="fill: rgb(221, 88, 111); transform-origin: 122.782px 308.101px;" d="M 114.211 297.694 C 119.749 294.745 126.671 296.957 130.132 302.854 C 132.901 308.751 130.825 316.122 125.287 319.808" transform="matrix(0.984808027744, -0.173648029566, 0.173648029566, 0.984808027744, 0.000004166573, -0.000002704432)"/>
  <g style="transform-origin: 184.917px 290.454px;" transform="matrix(0.85212212801, -0.150251999497, 0.159999996424, 0.907404124737, -73.039777724006, 16.537442392067)">
    <ellipse transform="matrix(-0.8958 -0.4445 0.4445 -0.8958 221.891 630.9888)" style="fill:#F4A6B4;" cx="184.917" cy="289.482" rx="2.4" ry="4.8"/>
    <circle style="fill:#F4A6B4;" cx="183.2" cy="296" r="0.8"/>
  </g>
  <path style="fill: rgb(2, 36, 62); transform-origin: 185.358px 343.612px;" d="M 167.707 382.456 C 167.015 382.456 166.323 382.456 166.323 381.718 C 164.938 380.981 164.246 378.77 164.938 376.559 L 199.549 306.532 C 200.241 305.058 202.318 304.321 204.394 305.058 C 205.779 305.795 206.471 308.006 205.779 310.218 L 171.168 380.244 C 169.784 381.718 168.399 382.456 167.707 382.456 Z" transform="matrix(0.984808027744, -0.173648029566, 0.173648029566, 0.984808027744, 0.000005518984, -0.000002056121)"/>
  <circle style="fill: rgb(237, 124, 138); transform-origin: 286.4px 294.4px;" cx="286.4" cy="294.4" r="13.6" transform="matrix(0.85212212801, -0.150251999497, 0.159999996424, 0.907404124737, -87.415475621691, 0.924102259023)"/>
  <path style="fill: rgb(221, 88, 111); transform-origin: 195.821px 294.848px;" d="M 204.392 284.81 C 198.854 281.861 191.932 284.072 188.471 289.969 C 185.702 295.866 187.779 303.238 193.316 306.186" transform="matrix(0.984808027744, -0.173648029566, 0.173648029566, 0.984808027744, 0.000008392999, -0.000004223518)"/>
  <g style="transform-origin: 295.374px 290.414px;" transform="matrix(0.85212212801, -0.150251999497, 0.159999996424, 0.907404124737, -89.380241382436, -0.055329752951)">
    <ellipse transform="matrix(-0.8958 0.4445 -0.4445 -0.8958 688.6133 417.3387)" style="fill:#F4A6B4;" cx="295.381" cy="289.397" rx="2.4" ry="4.8"/>
    <circle style="fill:#F4A6B4;" cx="296.8" cy="296" r="0.8"/>
  </g>
  <path style="fill: rgb(2, 36, 62); transform-origin: 161.173px 413.743px;" d="M 178.133 452.587 C 176.748 452.587 175.364 451.85 175.364 450.376 L 140.753 380.349 C 140.061 378.875 140.753 376.664 142.138 375.189 C 143.522 374.452 145.599 375.189 146.983 376.664 L 181.594 446.69 C 182.286 448.164 181.594 450.376 180.209 451.85 C 179.517 452.587 178.825 452.587 178.133 452.587 Z" transform="matrix(0.984808027744, -0.173648029566, 0.173648029566, 0.984808027744, 0.000003374958, -0.000001264233)"/>
  <circle style="fill: rgb(237, 124, 138); transform-origin: 193.6px 364.8px;" cx="193.6" cy="364.8" r="13.6" transform="matrix(0.85212212801, -0.150251999497, 0.159999996424, 0.907404124737, -62.428452537893, 8.348749891008)"/>
  <path style="fill: rgb(221, 88, 111); transform-origin: 134.046px 371.981px;" d="M 125.475 361.575 C 131.012 358.626 137.935 360.838 141.396 366.735 C 144.164 372.632 142.088 380.003 136.55 383.688" transform="matrix(0.984808027744, -0.173648029566, 0.173648029566, 0.984808027744, 0.000012130384, -6.06685e-7)"/>
  <g style="transform-origin: 184.885px 360.864px;" transform="matrix(0.85212212801, -0.150251999498, 0.159999996424, 0.907404124737, -61.769331200036, 10.022589450002)">
    <ellipse transform="matrix(-0.8958 -0.4445 0.4445 -0.8958 190.5295 764.4773)" style="fill:#F4A6B4;" cx="184.886" cy="359.903" rx="2.4" ry="4.8"/>
    <circle style="fill:#F4A6B4;" cx="183.2" cy="366.4" r="0.8"/>
  </g>
  <path style="fill: rgb(2, 36, 62); transform-origin: 196.622px 407.494px;" d="M 178.97 446.337 C 178.278 446.337 177.586 446.337 177.586 445.6 C 176.201 444.863 175.509 442.652 176.201 440.44 L 210.812 370.414 C 211.504 368.94 213.581 368.202 215.658 368.94 C 217.042 369.677 217.734 371.888 217.042 374.099 L 182.431 444.126 C 181.047 445.6 179.662 446.337 178.97 446.337 Z" transform="matrix(0.984808027744, -0.173648029566, 0.173648029566, 0.984808027744, 0.000002616167, -0.000002120198)"/>
  <circle style="fill: rgb(237, 124, 138); transform-origin: 286.4px 364.8px;" cx="286.4" cy="364.8" r="13.6" transform="matrix(0.85212212801, -0.150251999497, 0.159999996424, 0.907404124737, -76.15149210881, -5.594631535555)"/>
  <path style="fill: rgb(221, 88, 111); transform-origin: 207.148px 359.091px;" d="M 215.719 348.685 C 210.182 345.736 203.26 347.948 199.799 353.845 C 197.03 359.742 199.106 367.113 204.644 370.798" transform="matrix(0.984808027744, -0.173648029566, 0.173648029566, 0.984808027744, 0.00000360119, -0.00000285539)"/>
  <g style="transform-origin: 295.341px 360.847px;" transform="matrix(0.85212212801, -0.150251999497, 0.159999996424, 0.907404124737, -78.106068848136, -6.572106335435)">
    <ellipse transform="matrix(-0.8958 0.4445 -0.4445 -0.8958 719.8754 550.9433)" style="fill:#F4A6B4;" cx="295.35" cy="359.864" rx="2.4" ry="4.8"/>
    <circle style="fill:#F4A6B4;" cx="296.8" cy="366.4" r="0.8"/>
  </g>
  <path style="fill: rgb(2, 36, 62); transform-origin: 269.409px 257.145px;" d="M 269.41 487.773 C 266.27 487.773 264.175 486.112 264.175 483.618 L 264.175 30.669 C 264.175 28.177 266.27 26.516 269.41 26.516 C 272.552 26.516 274.644 28.177 274.644 30.669 L 274.644 483.618 C 274.644 486.112 272.552 487.773 269.41 487.773 Z" transform="matrix(0.933580219746, 0.358367949724, -0.358367949724, 0.933580219746, 0.000052152037, 0.000008986141)"/>
  <circle style="fill: rgb(237, 124, 138); transform-origin: 368.905px 6.00698px;" cx="368.905" cy="6.007" r="20" transform="matrix(1.221814990044, 0.469011068344, -0.372296005487, 0.969865143299, -10.888796173001, 20.310104342456)"/>
  <path style="fill: rgb(221, 88, 111); transform-origin: 369.935px 31.784px;" d="M 356.848 11.007 C 371.507 11.007 383.023 20.148 383.023 31.783 C 383.023 43.419 371.507 52.561 356.848 52.561" transform="matrix(0.933580219746, 0.358367949724, -0.358367949724, 0.933580219746, 0.000046258261, -0.000036900238)"/>
  <g transform="matrix(1.221814990044, 0.469011068344, -0.372296005487, 0.969865143299, 120.050023555063, 2.608090176956)" style="transform-origin: 231.413px 9.41797px;">
    <ellipse transform="matrix(-0.5852 -0.8109 0.8109 -0.5852 361.1086 200.8129)" style="fill:#F4A6B4;" cx="231.916" cy="8.045" rx="3.2" ry="7.2"/>
    <path style="fill:#F4A6B4;" d="M226.4,16c0,0.8-0.8,1.6-1.6,1.6s-1.6-0.8-1.6-1.6c0-0.8,0.8-1.6,1.6-1.6S226.4,15.2,226.4,16z"/>
  </g>
  <path style="fill: rgb(2, 36, 62); transform-origin: 291.302px 125.611px;" d="M 316.954 169.406 C 314.861 169.406 312.766 168.575 312.766 166.911 L 260.416 87.958 C 259.37 86.296 260.416 83.803 262.511 82.141 C 264.604 81.31 267.746 82.141 269.841 83.803 L 322.188 162.757 C 323.236 164.419 322.188 166.911 320.096 168.575 C 319.048 169.406 318.002 169.406 316.954 169.406 Z" transform="matrix(0.933580219746, 0.358367949724, -0.358367949724, 0.933580219746, 0.000037826386, -0.000005708753)"/>
  <circle style="fill: rgb(237, 124, 138); transform-origin: 322.505px 69.207px;" cx="322.505" cy="69.207" r="13.6" transform="matrix(1.221814990044, 0.469011068344, -0.372296005487, 0.969865143299, -44.710210450854, -3.35652939006)"/>
  <path style="fill: rgb(221, 88, 111); transform-origin: 282.341px 66.8098px;" d="M 269.377 55.077 C 277.753 51.752 288.223 54.246 293.457 60.894 C 297.645 67.544 294.505 75.855 286.129 80.009" transform="matrix(0.933580219746, 0.358367949724, -0.358367949724, 0.933580219746, 0.000035057905, -0.000023098019)"/>
  <g transform="matrix(1.221814990044, 0.469011068344, -0.372296005487, 0.969865143299, 83.764962990839, -21.259187604583)" style="transform-origin: 185.01px 79.2332px;">
    <ellipse transform="matrix(-0.8958 -0.4445 0.4445 -0.8958 315.9684 230.5537)" style="fill:#F4A6B4;" cx="185.012" cy="78.235" rx="2.4" ry="4.8"/>
    <circle style="fill:#F4A6B4;" cx="183.2" cy="84.8" r="0.8"/>
  </g>
  <path style="fill: rgb(2, 36, 62); transform-origin: 342.132px 145.121px;" d="M 315.433 188.916 C 314.388 188.916 313.339 188.916 313.339 188.085 C 311.246 187.254 310.199 184.76 311.246 182.268 L 363.595 103.314 C 364.643 101.653 367.783 100.82 370.923 101.653 C 373.017 102.484 374.065 104.976 373.017 107.47 L 320.669 186.424 C 318.573 188.085 316.481 188.916 315.433 188.916 Z" transform="matrix(0.933580219746, 0.358367949724, -0.358367949724, 0.933580219746, 0.000047268787, -0.000005830632)"/>
  <circle style="fill: rgb(237, 124, 138); transform-origin: 415.305px 69.207px;" cx="415.305" cy="69.207" r="13.6" transform="matrix(1.221814990044, 0.469011068344, -0.372296005487, 0.969865143299, -24.125678111372, 40.167707055918)"/>
  <path style="fill: rgb(221, 88, 111); transform-origin: 387.158px 107.045px;" d="M 400.121 95.312 C 391.747 91.987 381.277 94.48 376.04 101.129 C 371.855 107.778 374.995 116.09 383.371 120.244" transform="matrix(0.933580219746, 0.358367949724, -0.358367949724, 0.933580219746, 0.000048380125, -0.000029617013)"/>
  <g transform="matrix(1.221814990044, 0.469011068344, -0.372296005488, 0.969865143299, 108.303315561737, 30.565471417854)" style="transform-origin: 295.503px 79.1547px;">
    <ellipse transform="matrix(-0.8958 0.4445 -0.4445 -0.8958 594.9235 16.6623)" style="fill:#F4A6B4;" cx="295.508" cy="78.075" rx="2.4" ry="4.8"/>
    <circle style="fill:#F4A6B4;" cx="296.8" cy="84.8" r="0.8"/>
  </g>
  <path style="fill: rgb(2, 36, 62); transform-origin: 265.093px 193.888px;" d="M 290.745 237.683 C 288.651 237.683 286.557 236.853 286.557 235.19 L 234.206 156.236 C 233.161 154.574 234.206 152.081 236.301 150.418 C 238.395 149.588 241.535 150.418 243.63 152.081 L 295.979 231.036 C 297.027 232.697 295.979 235.19 293.885 236.853 C 292.838 237.683 291.792 237.683 290.745 237.683 Z" transform="matrix(0.933580219746, 0.358367949724, -0.358367949724, 0.933580219746, 0.000039319884, 5.87963e-7)"/>
  <circle style="fill: rgb(237, 124, 138); transform-origin: 322.505px 139.607px;" cx="322.505" cy="139.607" r="13.6" transform="matrix(1.221814990044, 0.469011068344, -0.372296005487, 0.969865143299, -70.91990800001, -5.477977341506)"/>
  <path style="fill: rgb(221, 88, 111); transform-origin: 256.132px 135.089px;" d="M 243.168 123.355 C 251.543 120.031 262.012 122.524 267.249 129.172 C 271.436 135.822 268.294 144.133 259.92 148.288" transform="matrix(0.933580219746, 0.358367949724, -0.358367949724, 0.933580219746, 0.00003733792, 0.000008501134)"/>
  <g transform="matrix(1.221814990044, 0.469011068344, -0.372296005487, 0.969865143299, 57.543915883209, -23.395703343562)" style="transform-origin: 184.978px 149.639px;">
    <ellipse transform="matrix(-0.8958 -0.4445 0.4445 -0.8958 284.6104 364.027)" style="fill:#F4A6B4;" cx="184.981" cy="148.648" rx="2.4" ry="4.8"/>
    <circle style="fill:#F4A6B4;" cx="183.2" cy="155.2" r="0.8"/>
  </g>
  <path style="fill: rgb(2, 36, 62); transform-origin: 315.922px 213.4px;" d="M 289.224 257.196 C 288.177 257.196 287.13 257.196 287.13 256.364 C 285.037 255.532 283.988 253.039 285.037 250.546 L 337.385 171.592 C 338.432 169.931 341.574 169.099 344.714 169.931 C 346.808 170.761 347.856 173.253 346.808 175.748 L 294.459 254.702 C 292.364 256.364 290.27 257.196 289.224 257.196 Z" transform="matrix(0.933580219746, 0.358367949724, -0.358367949724, 0.933580219746, 0.000044593414, -0.0000092134)"/>
  <circle style="fill: rgb(237, 124, 138); transform-origin: 415.305px 139.607px;" cx="415.305" cy="139.607" r="13.6" transform="matrix(1.221814990044, 0.469011068344, -0.372296005487, 0.969865143299, -50.335388078928, 38.046289851959)"/>
  <path style="fill: rgb(221, 88, 111); transform-origin: 360.948px 175.325px;" d="M 373.912 163.592 C 365.537 160.267 355.068 162.761 349.831 169.409 C 345.644 176.057 348.786 184.368 357.16 188.524" transform="matrix(0.933580219746, 0.358367949724, -0.358367949724, 0.933580219746, 0.000041923787, 0.000001291027)"/>
  <g transform="matrix(1.221814990044, 0.469011068344, -0.372296005487, 0.969865143299, 82.073060454561, 28.412555573758)" style="transform-origin: 295.438px 149.568px;">
    <ellipse transform="matrix(-0.8958 0.4445 -0.4445 -0.8958 626.1071 150.2054)" style="fill:#F4A6B4;" cx="295.445" cy="148.502" rx="2.4" ry="4.8"/>
    <circle style="fill:#F4A6B4;" cx="296.8" cy="155.2" r="0.8"/>
  </g>
  <path style="fill: rgb(2, 36, 62); transform-origin: 238.885px 262.166px;" d="M 264.537 305.961 C 262.442 305.961 260.349 305.131 260.349 303.469 L 207.998 224.515 C 206.953 222.853 207.998 220.36 210.093 218.696 C 212.187 217.866 215.327 218.696 217.421 220.36 L 269.771 299.314 C 270.819 300.975 269.771 303.469 267.677 305.131 C 266.631 305.961 265.582 305.961 264.537 305.961 Z" transform="matrix(0.933580219746, 0.358367949724, -0.358367949724, 0.933580219746, 0.000043144399, 0.000012466575)"/>
  <circle style="fill: rgb(237, 124, 138); transform-origin: 322.505px 210.007px;" cx="322.505" cy="210.007" r="13.6" transform="matrix(1.221814990044, 0.469011068344, -0.372296005487, 0.969865143299, -97.129590290377, -7.599425292955)"/>
  <path style="fill: rgb(221, 88, 111); transform-origin: 229.921px 203.367px;" d="M 216.957 191.634 C 225.334 188.309 235.803 190.802 241.038 197.452 C 245.227 204.099 242.085 212.41 233.708 216.566" transform="matrix(0.933580219746, 0.358367949724, -0.358367949724, 0.933580219746, 0.000044255431, 0.000001018522)"/>
  <g transform="matrix(1.221814990044, 0.469011068344, -0.372296005487, 0.969865143299, 31.330429133237, -25.532683672)" style="transform-origin: 184.948px 220.044px;">
    <ellipse transform="matrix(-0.8958 -0.4445 0.4445 -0.8958 253.2525 497.5003)" style="fill:#F4A6B4;" cx="184.949" cy="219.061" rx="2.4" ry="4.8"/>
    <circle style="fill:#F4A6B4;" cx="183.2" cy="225.6" r="0.8"/>
  </g>
  <path style="fill: rgb(2, 36, 62); transform-origin: 289.712px 281.677px;" d="M 263.013 325.472 C 261.967 325.472 260.921 325.472 260.921 324.641 C 258.827 323.809 257.779 321.316 258.827 318.823 L 311.176 239.869 C 312.223 238.208 315.364 237.376 318.505 238.208 C 320.598 239.039 321.645 241.533 320.598 244.025 L 268.249 322.979 C 266.154 324.641 264.061 325.472 263.013 325.472 Z" transform="matrix(0.933580219746, 0.358367949724, -0.358367949724, 0.933580219746, 0.000053583439, 0.000014427914)"/>
  <circle style="fill: rgb(237, 124, 138); transform-origin: 415.305px 210.007px;" cx="415.305" cy="210.007" r="13.6" transform="matrix(1.221814990044, 0.469011068344, -0.372296005487, 0.969865143299, -76.545070369306, 35.924826641727)"/>
  <path style="fill: rgb(221, 88, 111); transform-origin: 334.738px 243.603px;" d="M 347.701 231.87 C 339.326 228.545 328.856 231.039 323.621 237.688 C 319.434 244.335 322.574 252.646 330.949 256.802" transform="matrix(0.933580219746, 0.358367949724, -0.358367949724, 0.933580219746, 0.000050672632, 0.000008752302)"/>
  <g transform="matrix(1.221814990044, 0.469011068344, -0.372296005487, 0.969865143299, 55.85111588976, 26.275654709446)" style="transform-origin: 295.406px 219.981px;">
    <ellipse transform="matrix(-0.8958 0.4445 -0.4445 -0.8958 657.3513 283.7341)" style="fill:#F4A6B4;" cx="295.413" cy="218.929" rx="2.4" ry="4.8"/>
    <circle style="fill:#F4A6B4;" cx="296.8" cy="225.6" r="0.8"/>
  </g>
  <path style="fill: rgb(2, 36, 62); transform-origin: 212.675px 330.446px;" d="M 238.328 374.242 C 236.232 374.242 234.14 373.41 234.14 371.748 L 181.788 292.794 C 180.741 291.133 181.788 288.638 183.883 286.977 C 185.976 286.145 189.117 286.977 191.21 288.638 L 243.562 367.592 C 244.608 369.255 243.562 371.748 241.468 373.41 C 240.42 374.242 239.373 374.242 238.328 374.242 Z" transform="matrix(0.933580219746, 0.358367949724, -0.358367949724, 0.933580219746, 0.000052785542, 0.000016246315)"/>
  <circle style="fill: rgb(237, 124, 138); transform-origin: 322.505px 280.407px;" cx="322.505" cy="280.407" r="13.6" transform="matrix(1.221814990044, 0.469011068344, -0.372296005487, 0.969865143299, -123.339293520325, -9.720873704224)"/>
  <path style="fill: rgb(221, 88, 111); transform-origin: 203.711px 271.647px;" d="M 190.747 259.913 C 199.123 256.588 209.594 259.082 214.828 265.732 C 219.016 272.379 215.876 280.689 207.499 284.847" transform="matrix(0.933580219746, 0.358367949724, -0.358367949724, 0.933580219746, 0.000025239075, 0.000013722342)"/>
  <g transform="matrix(1.221814990044, 0.469011068344, -0.372296005487, 0.969865143299, 5.108326886831, -27.668899063581)" style="transform-origin: 184.917px 290.454px;">
    <ellipse transform="matrix(-0.8958 -0.4445 0.4445 -0.8958 221.891 630.9888)" style="fill:#F4A6B4;" cx="184.917" cy="289.482" rx="2.4" ry="4.8"/>
    <circle style="fill:#F4A6B4;" cx="183.2" cy="296" r="0.8"/>
  </g>
  <path style="fill: rgb(2, 36, 62); transform-origin: 263.501px 349.957px;" d="M 236.802 393.753 C 235.757 393.753 234.709 393.753 234.709 392.92 C 232.615 392.089 231.568 389.597 232.615 387.103 L 284.964 308.149 C 286.012 306.488 289.152 305.657 292.294 306.488 C 294.388 307.318 295.434 309.81 294.388 312.305 L 242.039 391.259 C 239.944 392.92 237.85 393.753 236.802 393.753 Z" transform="matrix(0.933580219746, 0.358367949724, -0.358367949724, 0.933580219746, 0.000053135331, 0.00001542464)"/>
  <circle style="fill: rgb(237, 124, 138); transform-origin: 415.305px 280.407px;" cx="415.305" cy="280.407" r="13.6" transform="matrix(1.221814990044, 0.469011068344, -0.372296005487, 0.969865143299, -102.75477359924, 33.803393489244)"/>
  <path style="fill: rgb(221, 88, 111); transform-origin: 308.678px 311.493px;" d="M 321.641 300.175 C 313.266 296.85 302.796 299.345 297.562 305.992 C 293.373 312.642 296.515 320.953 304.889 324.278" transform="matrix(0.933580219746, 0.358367949724, -0.358367949724, 0.933580219746, 0.000063004464, 0.000009706662)"/>
  <g transform="matrix(1.221814990044, 0.469011068344, -0.372296005488, 0.969865143299, 29.623439339611, 24.140616719229)" style="transform-origin: 295.374px 290.414px;">
    <ellipse transform="matrix(-0.8958 0.4445 -0.4445 -0.8958 688.6133 417.3387)" style="fill:#F4A6B4;" cx="295.381" cy="289.397" rx="2.4" ry="4.8"/>
    <circle style="fill:#F4A6B4;" cx="296.8" cy="296" r="0.8"/>
  </g>
  <path style="fill: rgb(2, 36, 62); transform-origin: 186.466px 398.724px;" d="M 212.117 442.52 C 210.022 442.52 207.929 441.688 207.929 440.027 L 155.579 361.073 C 154.533 359.41 155.579 356.917 157.674 355.255 C 159.767 354.424 162.909 355.255 165.002 356.917 L 217.352 435.871 C 218.399 437.533 217.352 440.027 215.259 441.688 C 214.211 442.52 213.164 442.52 212.117 442.52 Z" transform="matrix(0.933580219746, 0.358367949724, -0.358367949724, 0.933580219746, 0.000043503151, 0.000030180021)"/>
  <circle style="fill: rgb(237, 124, 138); transform-origin: 322.505px 350.807px;" cx="322.505" cy="350.807" r="13.6" transform="matrix(1.221814990044, 0.469011068344, -0.372296005487, 0.969865143299, -149.548974950553, -11.842335968732)"/>
  <path style="fill: rgb(221, 88, 111); transform-origin: 177.501px 339.925px;" d="M 164.537 328.19 C 172.914 324.868 183.385 327.36 188.618 334.009 C 192.807 340.657 189.666 348.969 181.29 353.125" transform="matrix(0.933580219746, 0.358367949724, -0.358367949724, 0.933580219746, 0.000030779277, 0.000018737266)"/>
  <g transform="matrix(1.221814990044, 0.469011068344, -0.372296005487, 0.969865143299, -21.11504058747, -29.804954020017)" style="transform-origin: 184.885px 360.864px;">
    <ellipse transform="matrix(-0.8958 -0.4445 0.4445 -0.8958 190.5295 764.4773)" style="fill:#F4A6B4;" cx="184.886" cy="359.903" rx="2.4" ry="4.8"/>
    <circle style="fill:#F4A6B4;" cx="183.2" cy="366.4" r="0.8"/>
  </g>
  <path style="fill: rgb(2, 36, 62); transform-origin: 237.292px 418.235px;" d="M 210.593 462.03 C 209.548 462.03 208.499 462.03 208.499 461.2 C 206.406 460.367 205.359 457.875 206.406 455.381 L 258.755 376.427 C 259.803 374.765 262.943 373.935 266.083 374.765 C 268.177 375.596 269.225 378.09 268.177 380.582 L 215.828 459.536 C 213.733 461.2 211.64 462.03 210.593 462.03 Z" transform="matrix(0.933580219746, 0.358367949724, -0.358367949724, 0.933580219746, 0.00005774694, 0.000028583127)"/>
  <circle style="fill: rgb(237, 124, 138); transform-origin: 415.305px 350.807px;" cx="415.305" cy="350.807" r="13.6" transform="matrix(1.221814990044, 0.469011068344, -0.372296005487, 0.969865143299, -128.964485547053, 31.681915965911)"/>
  <path style="fill: rgb(221, 88, 111); transform-origin: 282.319px 380.16px;" d="M 295.283 368.427 C 286.908 365.102 276.439 367.597 271.202 374.245 C 267.015 380.893 270.157 389.204 278.532 393.359" transform="matrix(0.933580219746, 0.358367949724, -0.358367949724, 0.933580219746, 0.000064211603, 0.000028629801)"/>
  <g transform="matrix(1.221814990044, 0.469011068344, -0.372296005487, 0.969865143299, 3.392902670474, 22.001137246747)" style="transform-origin: 295.341px 360.847px;">
    <ellipse transform="matrix(-0.8958 0.4445 -0.4445 -0.8958 719.8754 550.9433)" style="fill:#F4A6B4;" cx="295.35" cy="359.864" rx="2.4" ry="4.8"/>
    <circle style="fill:#F4A6B4;" cx="296.8" cy="366.4" r="0.8"/>
  </g>
</svg>