<?xml version="1.0" standalone="no"?>
<svg viewBox="0 0 200 200" xmlns="http://www.w3.org/2000/svg">
  <path fill="#4a113d" d="M42.5,-68.6C52.5,-59.8,56.2,-43.6,61.4,-29C66.7,-14.4,73.5,-1.4,70.7,9.3C67.8,20,55.3,28.5,45.3,38.3C35.3,48,27.9,59,18,62.5C8,66,-4.5,62.1,-16.1,57.5C-27.6,52.9,-38.2,47.6,-50.7,40.1C-63.3,32.6,-77.7,22.9,-81.4,10.5C-85,-1.9,-77.9,-17.1,-68.7,-29C-59.6,-40.9,-48.5,-49.6,-36.7,-57.6C-24.9,-65.6,-12.5,-72.9,1.9,-75.9C16.3,-78.8,32.6,-77.4,42.5,-68.6Z" transform="translate(100 100)" />
</svg>
